<!--?xml version="1.0" encoding="iso-8859-1"?-->
<!-- Generator: Adobe Illustrator 22.1.0, SVG Export Plug-In . SVG Version: 6.00 Build 0)  -->
<svg version="1.1" id="_x34_" xmlns="http://www.w3.org/2000/svg" xmlns:xlink="http://www.w3.org/1999/xlink" x="0px" y="0px" viewBox="0 0 512 454" style="opacity: 1; width: 256px;" xml:space="preserve">
<style type="text/css">
	.st0{fill:#EFB035;}
	.st1{fill:#040000;}
	.st2{opacity:0.2;fill:#040000;}
	.st3{fill:#ECECEB;}
	.st4{fill:#FFFFFF;}
	.st5{opacity:8.000000e-02;fill:#040000;}
</style>
<g>
	<path class="st0" d="M40,454h432c30.7,0,49.9-33.3,34.6-59.9L290.6,20c-15.4-26.6-53.8-26.6-69.2,0L5.4,394.1
		C-10,420.7,9.3,454,40,454z"></path>
	<g>
		<path class="st1" d="M488.8,404.4l-216-374.1c-3.5-6.1-9.7-9.7-16.8-9.7c-7.1,0-13.2,3.5-16.8,9.7l-216,374.1
			c-3.5,6.1-3.5,13.2,0,19.4c3.6,6.1,9.7,9.7,16.8,9.7h432c7.1,0,13.2-3.5,16.8-9.7C492.3,417.6,492.3,410.5,488.8,404.4z
			 M474.5,415.5c-0.8,1.3-1.7,1.4-2.5,1.4H40c-0.8,0-1.7-0.1-2.5-1.4c-0.8-1.3-0.4-2.2,0-2.9l216-374.1c0.4-0.7,1-1.4,2.5-1.4
			c1.5,0,2.1,0.7,2.5,1.4l216,374.1C474.9,413.3,475.3,414.2,474.5,415.5z"></path>
		<rect x="236.4" y="329.4" class="st1" width="39.1" height="38.9"></rect>
		<path class="st1" d="M269.8,173.3h-27.6c-4,0-7.1,3.4-6.9,7.3l7.9,121h25.2l8.2-121C276.9,176.7,273.8,173.3,269.8,173.3z"></path>
	</g>
	<g>
		<path class="st2" d="M83.5,398c0,5.4-4.3,9.8-9.7,9.8c-4.7,0-8.6-3.4-9.5-7.8c1.4,3.1,4.4,5.4,8.1,5.4c4.8,0,8.7-3.9,8.7-8.7
			c0-3.7-2.2-6.7-5.4-8.1C80.2,389.5,83.5,393.3,83.5,398z"></path>
		<path class="st2" d="M265.9,80.4c0,5.4-4.3,9.8-9.7,9.8c-4.7,0-8.6-3.4-9.5-7.8c1.3,3.1,4.4,5.4,8,5.4c4.9,0,8.8-3.9,8.8-8.7
			c0-3.7-2.3-6.9-5.7-8.1C262.5,71.6,265.9,75.6,265.9,80.4z"></path>
		<path class="st2" d="M449.2,398c0,5.4-4.3,9.8-9.7,9.8c-4.8,0-8.8-3.5-9.6-8.2c1.2,3.4,4.3,5.7,8.1,5.7c4.8,0,8.7-3.9,8.7-8.7
			c0-3.6-2.2-6.7-5.3-8.1C445.9,389.5,449.2,393.3,449.2,398z"></path>
	</g>
	<g>
		<circle class="st3" cx="72.4" cy="396.6" r="8.7"></circle>
		
			<ellipse transform="matrix(0.1511 -0.9885 0.9885 0.1511 138.2731 318.8135)" class="st3" cx="254.8" cy="78.9" rx="8.7" ry="8.7"></ellipse>
		<circle class="st3" cx="438" cy="396.6" r="8.7"></circle>
	</g>
	<g>
		<path class="st4" d="M75.3,394.9c0,2.5-2,4.4-4.4,4.4c-2.5,0-4.4-2-4.4-4.4c0-2.5,2-4.4,4.4-4.4C73.3,390.5,75.3,392.5,75.3,394.9
			z"></path>
		<path class="st4" d="M257.7,77.3c0,2.5-2,4.4-4.4,4.4c-2.5,0-4.4-2-4.4-4.4c0-2.5,2-4.4,4.4-4.4C255.7,72.8,257.7,74.8,257.7,77.3
			z"></path>
		<path class="st4" d="M440.9,394.9c0,2.5-2,4.4-4.4,4.4c-2.5,0-4.4-2-4.4-4.4c0-2.5,2-4.4,4.4-4.4
			C438.9,390.5,440.9,392.5,440.9,394.9z"></path>
	</g>
	<path class="st5" d="M290.6,20l216,374.1C522,420.7,502.7,454,472,454H256V0C269.4,0,282.9,6.7,290.6,20z"></path>
</g>
</svg>
