<!--?xml version="1.0" encoding="iso-8859-1"?-->
<!-- Generator: Adobe Illustrator 22.1.0, SVG Export Plug-In . SVG Version: 6.00 Build 0)  -->
<svg version="1.1" id="_x34_" xmlns="http://www.w3.org/2000/svg" xmlns:xlink="http://www.w3.org/1999/xlink" x="0px" y="0px" viewBox="0 0 468.7 512" style="opacity: 1; width: 256px;" xml:space="preserve">
<style type="text/css">
	.st0{fill:#3B3F41;}
	.st1{fill:#FFFFFF;}
	.st2{fill:#E44C2A;}
	.st3{opacity:6.000000e-02;fill:#F1B444;}
</style>
<g>
	<path class="st0" d="M459.8,111.4c2.4-9.9,0.6-16.4-4.1-20.9c-1.6-1.6-3.6-2.9-6-4.1c0.2-0.8,0.5-1.5,0.7-2.2
		c0.2-0.7,0.4-1.3,0.6-1.8c0.1-0.2,0.2-0.5,0.2-0.6c0,0,0-0.1,0-0.1c0.6-2,1.1-4.1,1.4-5.9c2.9-18-10.3-23.5-27.3-27
		c-1.9-0.3-6-1.1-11.7-2.3c-0.9-0.3-1.9-0.5-2.8-0.6c-2.5-0.5-5.2-1-8-1.5c-1.7-0.4-3.4-0.6-5.2-1c-3.2-0.6-6.8-1.4-10.7-2.2
		c-4.5-0.9-9.4-1.9-15.3-3.1c-0.4-0.1-0.9-0.3-1.4-0.4C309,25.6,215.9,7.1,181.7,0.3c-7.5-1.5-15.2,2.4-18.2,9.6l-49.6,113.2
		L0,383.7c0,0,0,0,0.1,0.1l0,0v54h0v0.1c0,0,139.4,33.7,229.4,55.6c10.8,2.6,20.8,5.1,29.9,7.3c5,1.2,9.8,2.4,14,3.5v0c0,0,0,0,0,0
		c10.1,2.5,18.2,4.4,23.5,5.8c43.4,10.8,51.9-28.6,60.1-53.8c2-6.4,11-32.5,23-67.1c30.6-88.1,80.7-231.8,86.8-251.4
		C471.2,123.9,467.6,116.2,459.8,111.4z"></path>
	<path class="st1" d="M455.7,90.5c-1.7-1.7-3.7-3-6-4.2c-0.4,1-0.8,2.2-1.3,3.5c0,0.2,0,0.2,0,0.2c-1.3,4.2-3,9.4-5.1,15.4v0.1
		c-19.4,56.7-66.3,191.3-89.3,257.7c-6.6,19.3-11.2,32.6-12.6,37.1c-8.2,25.1-16.9,64.6-60.1,53.7c-2.2-0.6-4.9-1.3-7.9-2
		c-10.3-2.7-25.5-6.4-43.4-10.9c-32-7.9-72.6-18.1-110.6-27.5c-38.2-9.6-74-18.4-96.2-24h-0.1c-1.3-0.4-2.1-0.6-3.3-0.9h-0.1
		c-1.4-0.4-2.8-0.8-4.1-1V398v4.6v2.5v13.2c30.2,7.4,140.6,35,213.6,53.2h0.1c17.3,4.2,32.4,8.1,43.9,11c6.4,1.6,11.7,2.9,15.7,3.9
		c43.4,10.9,52-28.6,60.1-53.8c7.3-22.6,101.4-291.2,109.8-318.5c0.3-1,0.6-1.8,0.8-2.6v-0.1C462.2,101.5,460.4,95,455.7,90.5z"></path>
	<path class="st2" d="M407.3,45.7l-1.7,4.8l-3.2,9.3l-5,14.8l-7.1,20.8l-77.9,229.7l-42.5,125v54.2c-12.1-3.1-27.2-6.8-44-10.8
		v-50.8l0.6-1.7L279,291.7l71.7-204.2l7.3-20.8l5.1-14.7l5-14.2c5.9,1.1,10.8,2.2,15.3,3.1c4,0.8,7.5,1.5,10.7,2.2
		c1.8,0.4,3.6,0.6,5.2,1C402.1,44.7,404.8,45.2,407.3,45.7z"></path>
	<g>
		<path class="st3" d="M455.5,90.5c-0.2,2.2-0.8,4.4-1.6,6.9c-0.4,1.1-0.9,2.7-1.5,4.6c-0.5,1.6-1,3.4-1.8,5.4v0.1
			c-1.2,3.8-2.8,8.4-4.6,13.7c-24.8,72.9-95.6,275.2-101.9,294.8c-8.1,25.1-16.6,64.6-60.1,53.6c-2.2-0.6-4.8-1.1-7.8-1.9
			c-0.9-0.2-1.8-0.5-2.9-0.7c-10.2-2.6-24.2-6.1-40.5-10.2c-1.1-0.3-2.2-0.6-3.4-0.9h-0.1C165.5,440,69.8,416.1,26.1,405.1
			c-1.1-0.2-2.2-0.6-3.4-0.8c-2.1-0.6-4.1-1-5.9-1.5c-0.4-0.1-0.7-0.2-1.1-0.2v-15c1.3,0.2,2.6,0.6,4.1,1h0.1c1.2,0.2,2,0.5,3.3,0.9
			h0.1c22.2,5.6,57.9,14.4,96.2,24c38,9.4,78.6,19.6,110.6,27.5c17.8,4.5,33,8.2,43.4,10.9c3,0.7,5.8,1.4,7.9,2
			c43.2,10.9,51.8-28.6,60.1-53.7c1.4-4.5,5.9-17.8,12.6-37.1c23-66.4,69.8-201,89.3-257.7v-0.1c2.2-5.9,3.8-11.2,5.1-15.4
			c0,0,0,0,0-0.2c0.5-1.3,0.9-2.5,1.3-3.5C451.9,87.5,453.9,88.8,455.5,90.5z"></path>
		<path class="st3" d="M380,389.3c-12,34.6-21,60.7-23,67.1c-8.2,25.3-16.7,64.5-60.1,53.8c-5.4-1.5-13.5-3.4-23.6-5.9
			c-12.1-3.1-27.2-6.8-44-10.8c-52.3-12.8-121.2-29.5-169.7-41.2c-35.1-8.5-59.6-14.4-59.6-14.4v-54.1C0,383.7,0,383.7,0,383.7
			l113.9-260.5l6.9,6.8l18.4,18.4l143.3,143.5l33.4,33.4l38.1,38l6.1,6.3l8,7.9L380,389.3z"></path>
	</g>
</g>
</svg>
