<!--?xml version="1.0" encoding="iso-8859-1"?-->
<!-- Generator: Adobe Illustrator 22.1.0, SVG Export Plug-In . SVG Version: 6.00 Build 0)  -->
<svg version="1.1" id="_x36_" xmlns="http://www.w3.org/2000/svg" xmlns:xlink="http://www.w3.org/1999/xlink" x="0px" y="0px" viewBox="0 0 512 431.6" style="width: 256px; height: 216px;" xml:space="preserve">
<style type="text/css">
	.st0{fill:#EDBC18;}
	.st1{opacity:5.000000e-02;fill:#FFFFFF;}
	.st2{fill:#3BA9B8;}
	.st3{opacity:4.000000e-02;fill:#040000;}
	.st4{opacity:0.9;fill:#FFFFFF;}
</style>
<g>
	<path class="st0" d="M369.1,184.6C369.1,82.6,286.5,0,184.6,0S0,82.6,0,184.6c0,66.3,35,124.5,87.6,157c-33.7,40.1-48,52.6-48,52.6
		s116.3-4.1,197.9-32.8C313.6,338.7,369.1,268.1,369.1,184.6z"></path>
	
		<ellipse transform="matrix(0.7983 -0.6023 0.6023 0.7983 -32.9162 81.1016)" class="st1" cx="104.6" cy="89.7" rx="52.4" ry="43.2"></ellipse>
	<path class="st2" d="M441.4,389.1c42.3-26.2,70.6-72.9,70.6-126.3c0-82.1-66.5-148.6-148.6-148.6s-148.6,66.5-148.6,148.6
		c0,67.1,44.5,123.7,105.5,142.2c65.7,23.3,159.9,26.6,159.9,26.6S468.6,421.5,441.4,389.1z"></path>
	<g>
		<path class="st3" d="M503.6,258.3c-1.6-28.2-13.9-53.9-33.4-74.6c-6.5-6.9-17.4-2.6-18.1,7.1c-3.3,49.8-25.4,103.2-65,147.7
			c-16.5,18.5-34.8,34-53.9,46.3c-9.3,6-4.8,21.5,6.1,20.9c0.1,0,0.3,0,0.4,0C434.7,400.1,508,334.1,503.6,258.3z"></path>
		<path class="st3" d="M201.3,286.4c-22.2,25-46.8,45.8-72.6,62.3c-12.5,8-6.4,29,8.2,28.1h0.6c38.7-2.2,74.8-12,106.1-27.3
			c-16.5-22.9-26.6-50.6-27.8-80.6C211.3,274.8,206.5,280.7,201.3,286.4z"></path>
		<path class="st3" d="M313.2,78c-8.7-9.3-23.4-3.5-24.3,9.6c-1.1,17.3-4,34.9-8.5,52.6c17.7-12.2,38.1-20.6,60.2-24.1
			C333.4,102.4,324.1,89.6,313.2,78z"></path>
	</g>
	<g>
		<circle class="st4" cx="89.3" cy="174.2" r="25.2"></circle>
		<circle class="st4" cx="184.6" cy="174.2" r="25.2"></circle>
		
			<ellipse transform="matrix(0.9872 -0.1592 0.1592 0.9872 -34.8896 73.2912)" class="st4" cx="440.1" cy="254.4" rx="20.3" ry="20.3"></ellipse>
		
			<ellipse transform="matrix(0.9872 -0.1592 0.1592 0.9872 -35.8674 61.0834)" class="st4" cx="363.4" cy="254.4" rx="20.3" ry="20.3"></ellipse>
		
			<ellipse transform="matrix(0.9878 -0.156 0.156 0.9878 -36.1737 47.8224)" class="st4" cx="286.7" cy="254.4" rx="20.3" ry="20.3"></ellipse>
	</g>
</g>
</svg>
